<svg xmlns="http://www.w3.org/2000/svg" width="1195" height="445" viewBox="0 0 1195 445">
<defs>
  <linearGradient id="bg" x1="0" y1="0" x2="1" y2="1">
    <stop offset="0" stop-color="#11151b"/>
    <stop offset=".55" stop-color="#0c1016"/>
    <stop offset="1" stop-color="#080b10"/>
  </linearGradient>
  <pattern id="grid" width="32" height="32" patternUnits="userSpaceOnUse">
    <path d="M32 0H0V32" fill="none" stroke="#7e8996" stroke-opacity=".08"/>
  </pattern>
  <filter id="glow"><feGaussianBlur stdDeviation="2.2" result="b"/><feMerge><feMergeNode in="b"/><feMergeNode in="SourceGraphic"/></feMerge></filter>
</defs>
<rect x="1" y="1" width="1193" height="443" rx="22" fill="url(#bg)" stroke="#747c87" stroke-opacity=".58"/>
<rect x="2" y="2" width="1191" height="441" rx="21" fill="url(#grid)"/>
<text x="46" y="42" fill="#9fb8cd" font-family="monospace" font-size="9" letter-spacing="3">GITHUB // ACTIVITY</text>
<text x="1048" y="42" fill="#68737f" font-family="monospace" font-size="8" letter-spacing="2">CONTRIBUTIONS + STREAK</text>
<line x1="46" y1="60" x2="1148" y2="60" stroke="#626a74" stroke-opacity=".55"/>

<text x="46" y="91" fill="#6d7b88" font-family="monospace" font-size="8" letter-spacing="2">GITHUB // ACTIVITY TELEMETRY</text>
<circle cx="1080" cy="88" r="5" fill="#91b1c9"><animate attributeName="r" values="3;8;3" dur="1.7s" repeatCount="indefinite"/></circle>
<text x="1095" y="91" fill="#71808d" font-family="monospace" font-size="8">LIVE</text>

<g font-family="monospace">
  <text x="46" y="137" fill="#687683" font-size="8">CONTRIBUTIONS · LAST 365 DAYS</text>
  <text id="contributions" x="46" y="184" fill="#eef2f5" font-size="38" font-weight="700">318</text>
  <text x="180" y="182" fill="#91abc0" font-size="11">commits / contributions</text>

  <text x="410" y="137" fill="#687683" font-size="8">CURRENT STREAK</text>
  <text id="current-streak" x="410" y="184" fill="#eef2f5" font-size="38" font-weight="700">03</text>
  <text x="535" y="182" fill="#91abc0" font-size="11">days</text>

  <text x="720" y="137" fill="#687683" font-size="8">LONGEST STREAK</text>
  <text id="longest-streak" x="720" y="184" fill="#eef2f5" font-size="38" font-weight="700">09</text>
  <text x="845" y="182" fill="#91abc0" font-size="11">days</text>

  <line x1="46" y1="220" x2="1148" y2="220" stroke="#525b65"/>

  <text x="46" y="252" fill="#687683" font-size="8">CONTRIBUTION PULSE</text>
  <g id="heatmap">
    <rect x="46" y="270" width="14" height="14" fill="#293038"/>
    <rect x="66" y="270" width="14" height="14" fill="#34404a"/>
    <rect x="86" y="270" width="14" height="14" fill="#536b7d"/>
    <rect x="106" y="270" width="14" height="14" fill="#7e9db4"/>
    <rect x="126" y="270" width="14" height="14" fill="#34404a"/>
    <rect x="146" y="270" width="14" height="14" fill="#8eabc0"/>
    <rect x="166" y="270" width="14" height="14" fill="#293038"/>
    <rect x="186" y="270" width="14" height="14" fill="#536b7d"/>
    <rect x="206" y="270" width="14" height="14" fill="#34404a"/>
    <rect x="226" y="270" width="14" height="14" fill="#7e9db4"/>
    <rect x="246" y="270" width="14" height="14" fill="#293038"/>
    <rect x="266" y="270" width="14" height="14" fill="#536b7d"/>
    <rect x="286" y="270" width="14" height="14" fill="#8eabc0"/>
    <rect x="306" y="270" width="14" height="14" fill="#34404a"/>
    <rect x="326" y="270" width="14" height="14" fill="#7e9db4"/>
    <rect x="346" y="270" width="14" height="14" fill="#293038"/>
    <rect x="366" y="270" width="14" height="14" fill="#536b7d"/>
    <rect x="386" y="270" width="14" height="14" fill="#8eabc0"/>
    <rect x="406" y="270" width="14" height="14" fill="#34404a"/>
    <rect x="426" y="270" width="14" height="14" fill="#7e9db4"/>
    <rect x="446" y="270" width="14" height="14" fill="#293038"/>
    <rect x="466" y="270" width="14" height="14" fill="#536b7d"/>
    <rect x="486" y="270" width="14" height="14" fill="#8eabc0"/>
    <rect x="506" y="270" width="14" height="14" fill="#34404a"/>
    <rect x="526" y="270" width="14" height="14" fill="#7e9db4"/>
    <rect x="546" y="270" width="14" height="14" fill="#293038"/>
    <rect x="566" y="270" width="14" height="14" fill="#536b7d"/>
    <rect x="586" y="270" width="14" height="14" fill="#8eabc0"/>
    <rect x="606" y="270" width="14" height="14" fill="#34404a"/>
    <rect x="626" y="270" width="14" height="14" fill="#7e9db4"/>
    <rect x="646" y="270" width="14" height="14" fill="#293038"/>
    <rect x="666" y="270" width="14" height="14" fill="#536b7d"/>
    <rect x="686" y="270" width="14" height="14" fill="#8eabc0"/>
    <rect x="706" y="270" width="14" height="14" fill="#34404a"/>
    <rect x="726" y="270" width="14" height="14" fill="#7e9db4"/>
    <rect x="746" y="270" width="14" height="14" fill="#293038"/>
    <rect x="766" y="270" width="14" height="14" fill="#536b7d"/>
    <rect x="786" y="270" width="14" height="14" fill="#8eabc0"/>
    <rect x="806" y="270" width="14" height="14" fill="#34404a"/>
    <rect x="826" y="270" width="14" height="14" fill="#7e9db4"/>
    <rect x="846" y="270" width="14" height="14" fill="#293038"/>
    <rect x="866" y="270" width="14" height="14" fill="#536b7d"/>
    <rect x="886" y="270" width="14" height="14" fill="#8eabc0"/>
    <rect x="906" y="270" width="14" height="14" fill="#34404a"/>
    <rect x="926" y="270" width="14" height="14" fill="#7e9db4"/>
    <rect x="946" y="270" width="14" height="14" fill="#293038"/>
    <rect x="966" y="270" width="14" height="14" fill="#536b7d"/>
    <rect x="986" y="270" width="14" height="14" fill="#8eabc0"/>
    <rect x="1006" y="270" width="14" height="14" fill="#34404a"/>
    <rect x="1026" y="270" width="14" height="14" fill="#7e9db4"/>
    <rect x="1046" y="270" width="14" height="14" fill="#293038"/>
    <rect x="1066" y="270" width="14" height="14" fill="#536b7d"/>
    <rect x="1086" y="270" width="14" height="14" fill="#8eabc0"/>
    <rect x="1106" y="270" width="14" height="14" fill="#34404a"/>
    <rect x="1126" y="270" width="14" height="14" fill="#7e9db4"/>
  </g>

  <text x="46" y="332" fill="#687683" font-size="8">PROFILE SIGNAL</text>
  <text id="repos" x="46" y="358" fill="#dce3e8" font-size="13">Repositories: 15</text>
  <text id="followers" x="300" y="358" fill="#dce3e8" font-size="13">Followers: 11</text>
  <text id="commits" x="560" y="358" fill="#dce3e8" font-size="13">Contributions: live</text>
  <text x="46" y="395" fill="#7e95a8" font-size="9">AUTO-REFRESHED BY GITHUB ACTIONS</text>
</g>

<text x="46" y="423" fill="#59636e" font-family="monospace" font-size="6" letter-spacing="2">0xSUDHISH // LIVE PROFILE TELEMETRY</text>
</svg>