<svg xmlns="http://www.w3.org/2000/svg" width="1350" height="380" viewBox="0 0 1350 380">
<defs>
  <linearGradient id="bg" x1="0" y1="0" x2="1" y2="1">
    <stop offset="0" stop-color="#17181b"/><stop offset=".55" stop-color="#24262b"/><stop offset="1" stop-color="#111215"/>
  </linearGradient>
  <pattern id="grid" width="32" height="32" patternUnits="userSpaceOnUse">
    <path d="M32 0H0V32" fill="none" stroke="#9aa4b0" stroke-opacity=".07"/>
  </pattern>
</defs>
<rect width="1350" height="380" rx="28" fill="url(#bg)"/>
<rect x="1" y="1" width="1348" height="378" rx="28" fill="url(#grid)" stroke="#747a84" stroke-opacity=".38" stroke-width="2"/>
<circle cx="42" cy="42" r="4" fill="#87919c"/>
<text x="58" y="46" fill="#a8bfd4" font-family="monospace" font-size="9" letter-spacing="3">GITHUB // SYSTEM STATUS</text>
<text x="1080" y="46" fill="#65707c" font-family="monospace" font-size="7" letter-spacing="2">LIVE TELEMETRY</text>

<text x="70" y="95" fill="#778592" font-family="monospace" font-size="9" letter-spacing="3">GITHUB // ACTIVITY TELEMETRY</text>
<g font-family="monospace">
  <text x="70" y="140" fill="#697684" font-size="9">PUBLIC REPOSITORIES</text>
  <text x="70" y="172" fill="#e0e5ea" font-size="30" font-weight="700">ACTIVE</text>
  <text x="280" y="172" fill="#8faeca" font-size="11">BUILDING • COMMITTING • SHIPPING</text>

  <text x="70" y="218" fill="#697684" font-size="9">CONTRIBUTION SIGNAL</text>
  <g transform="translate(70,232)">
    <g fill="#31353a">
      <rect x="0" y="0" width="15" height="15"/><rect x="22" y="0" width="15" height="15"/><rect x="44" y="0" width="15" height="15"/><rect x="66" y="0" width="15" height="15"/><rect x="88" y="0" width="15" height="15"/>
      <rect x="0" y="22" width="15" height="15"/><rect x="22" y="22" width="15" height="15"/><rect x="44" y="22" width="15" height="15"/><rect x="66" y="22" width="15" height="15"/><rect x="88" y="22" width="15" height="15"/>
      <rect x="0" y="44" width="15" height="15"/><rect x="22" y="44" width="15" height="15"/><rect x="44" y="44" width="15" height="15"/><rect x="66" y="44" width="15" height="15"/><rect x="88" y="44" width="15" height="15"/>
    </g>
    <g fill="#8caac2">
      <rect x="22" y="0" width="15" height="15"><animate attributeName="opacity" values=".25;1;.25" dur="2s" repeatCount="indefinite"/></rect>
      <rect x="66" y="0" width="15" height="15"/><rect x="44" y="22" width="15" height="15"><animate attributeName="opacity" values=".25;1;.25" dur="1.7s" repeatCount="indefinite"/></rect>
      <rect x="88" y="22" width="15" height="15"/><rect x="22" y="44" width="15" height="15"/><rect x="66" y="44" width="15" height="15"><animate attributeName="opacity" values=".25;1;.25" dur="2.4s" repeatCount="indefinite"/></rect>
    </g>
  </g>

  <text x="310" y="246" fill="#697684" font-size="9">FOCUS</text>
  <text x="310" y="270" fill="#d8dee5" font-size="12">AI / ML</text>
  <text x="310" y="294" fill="#d8dee5" font-size="12">Full Stack</text>
  <text x="310" y="318" fill="#d8dee5" font-size="12">Embedded AI</text>

  <text x="530" y="246" fill="#697684" font-size="9">WORKFLOW</text>
  <text x="530" y="270" fill="#d8dee5" font-size="12">IDEA → BUILD → TEST</text>
  <text x="530" y="294" fill="#d8dee5" font-size="12">DEPLOY → ITERATE</text>

  <circle cx="1200" cy="145" r="7" fill="#9fc5e3"><animate attributeName="r" values="4;9;4" dur="1.6s" repeatCount="indefinite"/></circle>
  <text x="1220" y="149" fill="#8faeca" font-size="9">LIVE</text>
</g>

<text x="42" y="355" fill="#59636e" font-family="monospace" font-size="6" letter-spacing="2">SUDHISH RITHVIK // SYSTEM INTERFACE</text>
</svg>